<?xml version="1.0" encoding="UTF-8"?>
<svg xmlns="http://www.w3.org/2000/svg" viewBox="0 0 512 512" width="512" height="512"><g id="outline"><path d="M305.994,246.235a55.761,55.761,0,0,1-28-17.2,8,8,0,0,0-6-2.706H240a8,8,0,0,0-6,2.706,55.761,55.761,0,0,1-28,17.2,8,8,0,1,0,3.988,15.5,71.61,71.61,0,0,0,33.491-19.4h25.03a71.61,71.61,0,0,0,33.491,19.4,8,8,0,1,0,3.988-15.5Z"/><path d="M320.76,120.529A72,72,0,0,0,191.5,120,72.013,72.013,0,0,0,168,259.9V344a8,8,0,0,0,8,8H336a8,8,0,0,0,8-8V256.5a72.007,72.007,0,0,0-23.24-135.973ZM328,336H184V320H328Zm5-92.085a8,8,0,0,0-5,7.415V304H304V280a8,8,0,0,0-16,0v24H264V280a8,8,0,0,0-16,0v24H224V280a8,8,0,0,0-16,0v24H184V253.983a8,8,0,0,0-6.006-7.747A56.009,56.009,0,0,1,192,136c1.2,0,2.476.052,4.028.162a7.993,7.993,0,0,0,7.993-5,56,56,0,0,1,103.924-.081,8,8,0,0,0,7.006,5A56,56,0,0,1,333,243.915Z"/><path d="M495.054,164.226A8,8,0,0,0,488,160H432V144h40a8,8,0,0,0,6.656-12.438L465.615,112l13.041-19.562A8,8,0,0,0,472,80H432V44a28.032,28.032,0,0,0-28-28H72A40.045,40.045,0,0,0,32,56V456a40.045,40.045,0,0,0,40,40H404a28.032,28.032,0,0,0,28-28V224h56a8,8,0,0,0,6.656-12.438L481.615,192l13.041-19.562A8,8,0,0,0,495.054,164.226ZM432,96h25.052l-7.708,11.562a8,8,0,0,0,0,8.876L457.052,128H432ZM48,56A24.028,24.028,0,0,1,72,32h8V416H72a39.788,39.788,0,0,0-24,8.022ZM384,448H192a8,8,0,0,0,0,16H384v16H72a24,24,0,0,1,0-48H384Zm32,20a12.013,12.013,0,0,1-12,12h-4V432h4a27.838,27.838,0,0,0,12-2.707Zm0-65.009V404a12.013,12.013,0,0,1-12,12H96V32H308.686l31.758,31.759a31.978,31.978,0,0,0,43.8,43.8L416,139.314ZM352,80a16,16,0,1,1,16,16A16.019,16.019,0,0,1,352,80Zm64,36.686L395.556,96.241a31.978,31.978,0,0,0-43.8-43.8L331.314,32H404a12.013,12.013,0,0,1,12,12Zm49.344,79.752L473.052,208H432V176h41.052l-7.708,11.562A8,8,0,0,0,465.344,196.438Z"/><path d="M224,376H200a8,8,0,0,0,0,16h24a8,8,0,0,0,0-16Z"/><path d="M320,376H256a8,8,0,0,0,0,16h64a8,8,0,0,0,0-16Z"/><path d="M64,456a8,8,0,0,0,8,8h48a8,8,0,0,0,0-16H72A8,8,0,0,0,64,456Z"/><path d="M152,464h8a8,8,0,0,0,0-16h-8a8,8,0,0,0,0,16Z"/></g></svg>
